{"title":"Chota Sipahi - The Little Soldier (2004) - HINDI","uid":13670191,"size":272757672,"categoryP":"video","categoryS":"movies","magnet":"?xt=urn:btih:3921b468a2f915285b9c29a5dcc9346ff46ed50a&amp;dn=Chota+Sipahi+-+The+Little+Soldier+%282004%29+-+HINDI&amp;tr=udp%3A%2F%2Ftracker.leechers-paradise.org%3A6969&amp;tr=udp%3A%2F%2Fzer0day.ch%3A1337&amp;tr=udp%3A%2F%2Fopen.demonii.com%3A1337&amp;tr=udp%3A%2F%2Ftracker.coppersurfer.tk%3A6969&amp;tr=udp%3A%2F%2Fexodus.desync.com%3A6969","seeders":0,"leechers":0,"uploader":"TRS007","files":1,"time":1456310589,"description":"Chota Sipahi (The Little Soldier)\r\nDirector: Jayshree Kanal &amp; A S Kanal\r\nHindi/2004/Colour/83mins\r\n\r\nSynopsis:\r\nJoze is a young Goan boy growing up during the freedom movement of the state in the 60s. Though young and thus expected to remain ignorant of the political winds brewing all over, he becomes acutely aware of the grave injustice everywhere and the sacrifice made by those around him. This instills in him a sense of responsibility that becomes instrumental in saving many lives during a crucial military operation. The film won the child actor the award for the Best Child Artist at the 52nd National Film Awards in 2005.\r\n\r\nlink: http://cfsindia.org/chota-sipahi-the-little-soldier/\r\n\r\n\r\nMedia Information:\r\n==================\r\nGeneral\r\nFormat                                   : MPEG-4\r\nFormat profile                           : Base Media\r\nCodec ID                                 : isom\r\nFile size                                : 260 MiB\r\nDuration                                 : 1h 23mn\r\nOverall bit rate mode                    : Variable\r\nOverall bit rate                         : 436 Kbps\r\n\r\n\r\nVideo\r\nID                                       : 1\r\nFormat                                   : MPEG-4 Visual\r\nFormat profile                           :   \r\nFormat settings, BVOP                    : No\r\nFormat settings, QPel                    : No\r\nFormat settings, GMC                     : No warppoints\r\nFormat settings, Matrix                  : Default (H.263)\r\nCodec ID                                 : 20\r\nDuration                                 : 1h 23mn\r\nBit rate mode                            : Variable\r\nBit rate                                 : 421 Kbps\r\nMaximum bit rate                         : 1 481 Kbps\r\nWidth                                    : 480 pixels\r\nHeight                                   : 360 pixels\r\nDisplay aspect ratio                     : 4:3\r\nFrame rate mode                          : Constant\r\nFrame rate                               : 25.000 fps\r\nColor space                              : YUV\r\nChroma subsampling                       : 4:2:0\r\nBit depth                                : 8 bits\r\nScan type                                : Progressive\r\nCompression mode                         : Lossy\r\nBits/(Pixel*Frame)                       : 0.098\r\nStream size                              : 251 MiB (97%)\r\nWriting library                          : Lavc52.20.1\r\n\r\n\r\nAudio\r\nID                                       : 2\r\nFormat                                   : AAC\r\nFormat/Info                              : Advanced Audio Codec\r\nFormat profile                           : LC\r\nCodec ID                                 : 40\r\nDuration                                 : 1h 23mn\r\nBit rate mode                            : Variable\r\nBit rate                                 : 13.8 Kbps\r\nMaximum bit rate                         : 24.3 Kbps\r\nChannel(s)                               : 2 channels\r\nChannel(s)_Original                      : 1 channel\r\nChannel positions                        : Front: C\r\nSampling rate                            : 8 000 Hz\r\nCompression mode                         : Lossy\r\nStream size                              : 8.21 MiB (3%)","torrent":{"xt":"urn:btih:3921b468a2f915285b9c29a5dcc9346ff46ed50a","amp;dn":"Chota+Sipahi+-+The+Little+Soldier+%282004%29+-+HINDI","amp;tr":["udp%3A%2F%2Ftracker.leechers-paradise.org%3A6969","udp%3A%2F%2Fzer0day.ch%3A1337","udp%3A%2F%2Fopen.demonii.com%3A1337","udp%3A%2F%2Ftracker.coppersurfer.tk%3A6969","udp%3A%2F%2Fexodus.desync.com%3A6969"],"infoHash":"3921b468a2f915285b9c29a5dcc9346ff46ed50a","infoHashBuffer":{"type":"Buffer","data":[57,33,180,104,162,249,21,40,91,156,41,165,220,201,52,111,244,110,213,10]},"announce":[],"urlList":[]}}